<?xml version="1.0" standalone="no"?>
<!DOCTYPE svg PUBLIC "-//W3C//DTD SVG 20010904//EN"
 "http://www.w3.org/TR/2001/REC-SVG-20010904/DTD/svg10.dtd">
<svg version="1.0" xmlns="http://www.w3.org/2000/svg"
 width="500.000000pt" height="500.000000pt" viewBox="0 0 500.000000 500.000000"
 preserveAspectRatio="xMidYMid meet">

<g transform="translate(0.000000,500.000000) scale(0.100000,-0.100000)"
fill="#000000" stroke="none">
<path d="M3004 3109 c-76 -41 -224 -133 -255 -158 -34 -29 -6 -27 61 5 72 33
242 138 265 164 28 31 -1 26 -71 -11z"/>
<path d="M2618 2940 c-18 -11 -44 -77 -34 -87 7 -8 41 7 97 42 23 15 37 30 33
35 -15 14 -78 21 -96 10z"/>
<path d="M2663 2859 c-46 -27 -83 -55 -83 -62 0 -7 6 -21 13 -32 7 -11 25 -41
40 -66 l27 -47 -118 -148 -118 -149 -65 -1 c-118 -3 -249 -74 -307 -169 -15
-24 -31 -50 -37 -59 -7 -12 -54 -23 -174 -42 -90 -14 -173 -24 -184 -22 -13 2
-35 26 -57 63 -45 73 -57 74 -158 13 -66 -39 -72 -45 -67 -68 8 -30 51 -89 72
-97 8 -3 39 0 69 7 42 10 100 11 263 4 l209 -9 40 -42 c44 -49 59 -52 112 -22
l39 22 31 -27 c17 -14 37 -26 43 -27 7 -1 28 -4 47 -6 82 -12 118 -8 144 16
14 13 29 40 32 60 4 20 13 44 21 53 12 13 14 30 9 71 l-7 53 35 17 c43 20 52
50 35 115 l-12 50 97 193 c71 140 108 203 134 226 28 24 36 39 36 65 0 36 -47
118 -67 117 -6 0 -49 -23 -94 -50z m-273 -829 c18 0 40 -32 40 -57 0 -35 -27
-63 -59 -63 -32 0 -44 8 -60 37 -20 39 20 101 57 88 8 -3 17 -5 22 -5z"/>
<path d="M2934 2879 c-9 -19 -12 -35 -7 -40 6 -6 205 -3 501 8 270 9 490 19
488 20 -3 3 -870 43 -933 43 -26 0 -36 -6 -49 -31z"/>
<path d="M2505 2812 c-72 -34 -228 -131 -270 -167 -29 -25 -29 -26 -5 -19 85
22 393 214 344 214 -5 0 -36 -13 -69 -28z"/>
<path d="M2922 2748 c-18 -24 -23 -55 -10 -61 17 -6 925 26 932 33 5 5 -792
41 -880 40 -17 0 -36 -6 -42 -12z"/>
<path d="M2822 2598 c-18 -24 -23 -55 -10 -61 17 -6 925 26 932 33 5 5 -792
41 -880 40 -17 0 -36 -6 -42 -12z"/>
<path d="M2736 2441 c-9 -16 -16 -35 -16 -41 0 -6 36 -10 96 -10 105 0 907 30
911 34 1 1 -201 10 -450 19 -249 10 -469 20 -489 23 -33 5 -38 3 -52 -25z"/>
<path d="M1782 2385 c-95 -46 -227 -130 -252 -160 -14 -16 -13 -17 10 -10 63
18 327 176 345 205 11 18 -10 11 -103 -35z"/>
<path d="M2667 2288 c-9 -19 -12 -37 -7 -42 8 -8 990 21 999 30 2 2 -13 4 -35
4 -46 0 -671 27 -830 35 l-111 6 -16 -33z"/>
<path d="M1403 2224 c-13 -6 -38 -72 -30 -81 9 -8 40 5 93 39 43 27 47 32 29
39 -22 8 -74 10 -92 3z"/>
<path d="M2645 2138 c-8 -19 -10 -37 -5 -42 8 -8 989 21 999 30 2 2 -16 4 -40
4 -24 0 -242 9 -484 20 -242 11 -444 20 -448 20 -4 0 -14 -15 -22 -32z"/>
<path d="M1255 2077 c-116 -61 -264 -161 -243 -165 20 -4 112 42 228 113 149
93 159 128 15 52z"/>
<path d="M2590 2001 c-5 -11 -10 -30 -10 -42 0 -21 2 -22 98 -16 53 4 268 12
477 18 386 11 584 25 405 28 -47 1 -258 8 -470 16 -507 19 -487 19 -500 -4z"/>
</g>
</svg>
