<svg version="1.1" id="Layer_1" xmlns="http://www.w3.org/2000/svg" xmlns:xlink="http://www.w3.org/1999/xlink" x="0px" y="0px"
	 width="100%" viewBox="0 0 207 104" enable-background="new 0 0 207 104" xml:space="preserve">
<path fill="#141821" opacity="1.000000" stroke="none" 
	d="
M112.000000,1.000000 
	C143.977005,1.000000 175.954010,1.000000 207.931000,1.000001 
	C207.953995,1.143553 207.997147,1.287104 207.997162,1.430657 
	C208.000107,35.905865 208.000000,70.381073 208.000000,104.928139 
	C139.097549,104.928139 70.195007,104.928139 1.146234,104.928139 
	C1.146234,70.456284 1.146234,35.911743 1.146234,1.000000 
	C33.353302,1.000000 65.707993,1.000000 98.593430,1.397976 
	C97.322746,5.394954 94.414619,9.232306 101.282753,10.828566 
	C101.706596,10.927073 102.299690,12.504274 102.066109,12.797286 
	C101.445908,13.575311 100.483711,14.365585 99.538338,14.554562 
	C91.817062,16.098005 85.570656,19.812193 79.918526,25.443295 
	C69.125763,36.195915 66.386787,48.867603 70.208366,62.944458 
	C74.200394,77.649170 84.312645,86.820389 99.237480,89.557602 
	C119.484642,93.270927 137.444183,81.389488 142.435501,62.174217 
	C142.994690,59.911102 143.308685,57.941437 143.718613,55.649250 
	C143.791168,54.881111 143.767776,54.435493 143.833374,53.624088 
	C143.860611,52.513180 143.798859,51.768059 143.791077,50.688503 
	C143.772629,49.911331 143.700195,49.468597 143.669189,48.663555 
	C143.240524,46.458912 142.770447,44.616573 142.299652,42.826664 
	C142.298920,42.879089 142.382324,42.815529 142.351196,42.466888 
	C141.886444,41.090546 141.452820,40.062843 140.991547,38.669373 
	C135.154282,24.648115 125.093506,16.466776 109.034569,14.455790 
	C111.660561,10.073934 118.459297,6.401330 112.000000,1.000000 
M42.566822,74.683281 
	C47.055950,77.825592 51.545078,80.967896 56.025284,84.103966 
	C60.319145,80.450348 60.149639,73.498360 55.557861,70.187256 
	C47.348148,64.267288 39.045876,58.475685 30.328796,52.309628 
	C37.452213,47.213844 44.065178,41.895275 51.259991,37.537312 
	C56.289440,34.490925 59.767025,31.326584 58.573853,25.044987 
	C58.328121,23.751310 58.083824,21.717817 57.321213,21.438459 
	C56.228668,21.038240 54.409187,21.580557 53.333477,22.336864 
	C42.149242,30.200253 31.020077,38.143291 19.946482,46.162071 
	C15.618944,49.295795 15.621087,55.607475 19.916632,58.804333 
	C27.170399,64.202782 34.516609,69.477013 42.566822,74.683281 
M164.989792,77.469452 
	C173.592453,71.248833 182.217331,65.058647 190.790070,58.797058 
	C196.657257,54.511620 196.636063,49.306938 190.835770,45.220032 
	C187.175217,42.640797 183.530151,40.039566 179.868240,37.462273 
	C172.573532,32.328152 165.334061,27.110056 157.901413,22.183695 
	C156.873016,21.502079 154.117264,21.682354 153.469330,22.500113 
	C151.574356,24.891703 153.523560,32.641514 156.132095,34.480225 
	C162.838196,39.207249 169.587891,43.872364 176.311905,48.574032 
	C180.286285,51.353046 180.348663,52.705460 176.551285,55.472496 
	C170.783569,59.675274 164.984390,63.834984 159.190018,68.001060 
	C152.350540,72.918533 151.563690,75.214607 154.158615,84.752640 
	C157.763000,82.360535 161.100189,80.145767 164.989792,77.469452 
z"/>
<path fill="#ED01A6" opacity="1.000000" stroke="none" 
	d="
M142.190292,62.467667 
	C137.444183,81.389488 119.484642,93.270927 99.237480,89.557602 
	C84.312645,86.820389 74.200394,77.649170 70.208366,62.944458 
	C66.386787,48.867603 69.125763,36.195915 79.918526,25.443295 
	C85.570656,19.812193 91.817062,16.098005 99.538338,14.554562 
	C100.483711,14.365585 101.445908,13.575311 102.066109,12.797286 
	C102.299690,12.504274 101.706596,10.927073 101.282753,10.828566 
	C94.414619,9.232306 97.322746,5.394954 99.062088,1.397976 
	C103.024544,1.000000 107.049088,1.000000 111.536819,1.000000 
	C118.459297,6.401330 111.660561,10.073934 109.034569,14.455790 
	C125.093506,16.466776 135.154282,24.648115 140.980835,39.035667 
	C141.459305,40.783665 141.920822,41.799599 142.382324,42.815529 
	C142.382324,42.815529 142.298920,42.879089 142.214294,43.232635 
	C142.629028,45.399406 143.128403,47.212635 143.627777,49.025864 
	C143.700195,49.468597 143.772629,49.911331 143.607422,50.899620 
	C143.494659,52.293407 143.619522,53.141644 143.744385,53.989880 
	C143.767776,54.435493 143.791168,54.881111 143.382690,55.807560 
	C142.697327,58.348152 142.443802,60.407909 142.190292,62.467667 
M86.535713,29.984333 
	C84.876297,32.219902 83.000130,34.327423 81.591805,36.711330 
	C70.470177,55.537182 81.271355,81.499405 106.128456,81.800392 
	C125.557304,82.035652 138.061829,64.684654 134.447647,46.319672 
	C130.253311,25.006762 106.240059,15.366997 86.535713,29.984333 
z"/>
<path fill="#F9F9F9" opacity="1.000000" stroke="none" 
	d="
M42.195381,74.743378 
	C34.516609,69.477013 27.170399,64.202782 19.916632,58.804333 
	C15.621087,55.607475 15.618944,49.295795 19.946482,46.162071 
	C31.020077,38.143291 42.149242,30.200253 53.333477,22.336864 
	C54.409187,21.580557 56.228668,21.038240 57.321213,21.438459 
	C58.083824,21.717817 58.328121,23.751310 58.573853,25.044987 
	C59.767025,31.326584 56.289440,34.490925 51.259991,37.537312 
	C44.065178,41.895275 37.452213,47.213844 30.328796,52.309628 
	C39.045876,58.475685 47.348148,64.267288 55.557861,70.187256 
	C60.149639,73.498360 60.319145,80.450348 56.025284,84.103966 
	C51.545078,80.967896 47.055950,77.825592 42.195381,74.743378 
z"/>
<path fill="#F9F9FA" opacity="1.000000" stroke="none" 
	d="
M164.713577,77.700226 
	C161.100189,80.145767 157.763000,82.360535 154.158615,84.752640 
	C151.563690,75.214607 152.350540,72.918533 159.190018,68.001060 
	C164.984390,63.834984 170.783569,59.675274 176.551285,55.472496 
	C180.348663,52.705460 180.286285,51.353046 176.311905,48.574032 
	C169.587891,43.872364 162.838196,39.207249 156.132095,34.480225 
	C153.523560,32.641514 151.574356,24.891703 153.469330,22.500113 
	C154.117264,21.682354 156.873016,21.502079 157.901413,22.183695 
	C165.334061,27.110056 172.573532,32.328152 179.868240,37.462273 
	C183.530151,40.039566 187.175217,42.640797 190.835770,45.220032 
	C196.636063,49.306938 196.657257,54.511620 190.790070,58.797058 
	C182.217331,65.058647 173.592453,71.248833 164.713577,77.700226 
z"/>
<path fill="#D204AA" opacity="1.000000" stroke="none" 
	d="
M143.669189,48.663551 
	C143.128403,47.212635 142.629028,45.399406 142.215027,43.180206 
	C142.770447,44.616573 143.240524,46.458912 143.669189,48.663551 
z"/>
<path fill="#D204AA" opacity="1.000000" stroke="none" 
	d="
M142.435501,62.174217 
	C142.443802,60.407909 142.697327,58.348152 143.286774,56.130085 
	C143.308685,57.941437 142.994690,59.911102 142.435501,62.174217 
z"/>
<path fill="#D204AA" opacity="1.000000" stroke="none" 
	d="
M142.351196,42.466888 
	C141.920822,41.799599 141.459305,40.783665 141.008514,39.401436 
	C141.452820,40.062843 141.886444,41.090546 142.351196,42.466888 
z"/>
<path fill="#D204AA" opacity="1.000000" stroke="none" 
	d="
M143.833374,53.624088 
	C143.619522,53.141644 143.494659,52.293407 143.553452,51.234055 
	C143.798859,51.768059 143.860611,52.513180 143.833374,53.624088 
z"/>
<path fill="#161922" opacity="1.000000" stroke="none" 
	d="
M86.887207,29.879017 
	C106.240059,15.366997 130.253311,25.006762 134.447647,46.319672 
	C138.061829,64.684654 125.557304,82.035652 106.128456,81.800392 
	C81.271355,81.499405 70.470177,55.537182 81.591805,36.711330 
	C83.000130,34.327423 84.876297,32.219902 86.887207,29.879017 
M112.139259,57.541286 
	C112.353180,56.275555 113.057106,54.847252 112.700035,53.770954 
	C110.658928,47.618633 108.365417,41.550053 106.101120,35.296993 
	C104.043892,41.546398 101.803215,47.613403 100.094261,53.826660 
	C99.096512,57.454208 102.122780,61.207218 105.684006,60.864838 
	C107.788963,60.662464 109.768631,59.156906 112.139259,57.541286 
z"/>
<path fill="#ED01A6" opacity="1.000000" stroke="none" 
	d="
M111.971954,57.889332 
	C109.768631,59.156906 107.788963,60.662464 105.684006,60.864838 
	C102.122780,61.207218 99.096512,57.454208 100.094261,53.826660 
	C101.803215,47.613403 104.043892,41.546398 106.101120,35.296993 
	C108.365417,41.550053 110.658928,47.618633 112.700035,53.770954 
	C113.057106,54.847252 112.353180,56.275555 111.971954,57.889332 
z"/>
</svg>